<?xml version="1.0" encoding="UTF-8"?>
<svg width="17px" height="17px" viewBox="0 0 17 17" version="1.1" xmlns="http://www.w3.org/2000/svg" xmlns:xlink="http://www.w3.org/1999/xlink">
    <!-- Generator: Sketch 49.3 (51167) - http://www.bohemiancoding.com/sketch -->
    <title>Banner-SHite</title>
    <desc>Created with Sketch.</desc>
    <defs></defs>
    <g id="Banner-SHite" stroke="none" stroke-width="1" fill="none" fill-rule="evenodd">
        <path d="M16.3367347,1.80612245 L13.8877551,1.80612245 L13.8877551,0.663265306 C13.8877551,0.573142857 13.8146122,0.5 13.7244898,0.5 C13.6343673,0.5 13.5612245,0.573142857 13.5612245,0.663265306 L13.5612245,1.80612245 L3.43877551,1.80612245 L3.43877551,0.663265306 C3.43877551,0.573142857 3.36563265,0.5 3.2755102,0.5 C3.18538776,0.5 3.1122449,0.573142857 3.1122449,0.663265306 L3.1122449,1.80612245 L0.663265306,1.80612245 C0.573142857,1.80612245 0.5,1.87926531 0.5,1.96938776 L0.5,12.4183673 C0.5,12.5084898 0.573142857,12.5816327 0.663265306,12.5816327 L3.1122449,12.5816327 L3.1122449,16.3367347 C3.1122449,16.4268571 3.18538776,16.5 3.2755102,16.5 C3.36563265,16.5 3.43877551,16.4268571 3.43877551,16.3367347 L3.43877551,14.5408163 L13.5612245,14.5408163 L13.5612245,16.3367347 C13.5612245,16.4268571 13.6343673,16.5 13.7244898,16.5 C13.8146122,16.5 13.8877551,16.4268571 13.8877551,16.3367347 L13.8877551,12.5816327 L16.3367347,12.5816327 C16.4268571,12.5816327 16.5,12.5084898 16.5,12.4183673 L16.5,1.96938776 C16.5,1.87926531 16.4268571,1.80612245 16.3367347,1.80612245 Z M13.5612245,14.2142857 L3.43877551,14.2142857 L3.43877551,12.5816327 L13.5612245,12.5816327 L13.5612245,14.2142857 Z M16.1734694,12.255102 L0.826530612,12.255102 L0.826530612,2.13265306 L16.1734694,2.13265306 L16.1734694,12.255102 Z" id="Shape" stroke="#FFFFFF" fill="#FFFFFF" fill-rule="nonzero"></path>
    </g>
</svg>