<?xml version="1.0" encoding="utf-8"?>
<!-- Generator: Adobe Illustrator 25.0.0, SVG Export Plug-In . SVG Version: 6.00 Build 0)  -->
<svg version="1.1" id="Layer_1" xmlns="http://www.w3.org/2000/svg" xmlns:xlink="http://www.w3.org/1999/xlink" x="0px" y="0px"
	 viewBox="0 0 24 24" style="enable-background:new 0 0 24 24;" xml:space="preserve">
<style type="text/css">
	.st0{fill:#FFFFFF;}
</style>
<path class="st0" d="M19,2H6C4.8,2,3,2.8,3,5v14c0,2.2,1.8,3,3,3h15v-2H6c-0.5,0-1-0.2-1-1c0-0.1,0-0.2,0-0.3C5.1,18.2,5.6,18,6,18
	h14c0,0,0,0,0,0h1V4C21,2.9,20.1,2,19,2z M19,16H5V5c0-0.8,0.6-1,1-1h7v7l2-1l2,1V4h2V16z"/>
</svg>
