<?xml version="1.0" encoding="utf-8"?>
<!-- Generator: Adobe Illustrator 25.0.0, SVG Export Plug-In . SVG Version: 6.00 Build 0)  -->
<svg version="1.1" id="Layer_1" xmlns="http://www.w3.org/2000/svg" xmlns:xlink="http://www.w3.org/1999/xlink" x="0px" y="0px"
	 viewBox="0 0 512 512" style="enable-background:new 0 0 512 512;" xml:space="preserve">
<style type="text/css">
	.st0{fill:#FFFFFF;}
</style>
<path class="st0" d="M168.2,384.9c-15-5.4-31.7-3.1-44.6,6.4c-8.2,6-22.3,14.8-39.4,22.7c5.6-14.7,9.9-31.3,11.3-49.4
	c1-12.9-3.3-25.7-11.8-35.5C60.4,302.8,48,272,48,240c0-79.5,83.3-160,208-160s208,80.5,208,160s-83.3,160-208,160
	C224.4,400,194.7,394.5,168.2,384.9z M26.3,423.8c-1.6,2.7-3.3,5.4-5.1,8.1l-0.3,0.5c-1.6,2.3-3.2,4.6-4.8,6.9
	c-3.5,4.7-7.3,9.3-11.3,13.5c-4.6,4.6-5.9,11.4-3.4,17.4s8.3,9.9,14.8,9.9c5.1,0,10.2-0.3,15.3-0.8l0.7-0.1
	c4.4-0.5,8.8-1.1,13.2-1.9c0.8-0.1,1.6-0.3,2.4-0.5c17.8-3.5,34.9-9.5,50.1-16.1c22.9-10,42.4-21.9,54.3-30.6
	c31.8,11.5,67,17.9,104.1,17.9c141.4,0,256-93.1,256-208S397.4,32,256,32S0,125.1,0,240c0,45.1,17.7,86.8,47.7,120.9
	C45.8,385.4,36.3,407.2,26.3,423.8z M144,272c17.7,0,32-14.3,32-32s-14.3-32-32-32s-32,14.3-32,32S126.3,272,144,272z M288,240
	c0-17.7-14.3-32-32-32s-32,14.3-32,32s14.3,32,32,32S288,257.7,288,240z M368,272c17.7,0,32-14.3,32-32s-14.3-32-32-32
	s-32,14.3-32,32S350.3,272,368,272z"/>
</svg>
