<?xml version="1.0" encoding="UTF-8"?>
<svg width="17px" height="14px" viewBox="0 0 17 14" version="1.1" xmlns="http://www.w3.org/2000/svg" xmlns:xlink="http://www.w3.org/1999/xlink">
    <!-- Generator: Sketch 49.3 (51167) - http://www.bohemiancoding.com/sketch -->
    <title>Coin-White</title>
    <desc>Created with Sketch.</desc>
    <defs></defs>
    <g id="Coin-White" stroke="none" stroke-width="1" fill="none" fill-rule="evenodd">
        <g id="noun_token_1796108" fill="#FFFFFF" fill-rule="nonzero">
            <path d="M8.35483871,0.223096774 C3.74793548,0.223096774 0,2.75551613 0,5.86825806 L0,8.76919355 C0,9.79322581 0.453870968,10.7504194 1.24532258,11.3953226 C2.47619355,12.3985806 3.98141935,13.105129 5.62935484,13.476129 C5.62935484,13.476129 5.62958065,13.476129 5.62958065,13.476129 C6.50435484,13.6730323 7.41864516,13.777129 8.35506452,13.777129 C9.29148387,13.777129 10.2057742,13.6730323 11.0805484,13.476129 C11.0805484,13.476129 11.0807742,13.476129 11.0807742,13.476129 C12.7287097,13.105129 14.2339355,12.3985806 15.4648065,11.3953226 C16.2558065,10.7501935 16.7096774,9.79322581 16.7096774,8.76896774 L16.7096774,5.86825806 C16.7096774,2.75551613 12.9617419,0.223096774 8.35483871,0.223096774 Z M2.63448387,11.284 C2.34951613,11.1017742 2.07516129,10.9064516 1.81593548,10.6950968 C1.23606452,10.2224839 0.903225806,9.52045161 0.903225806,8.76896774 L0.903225806,8.41625806 C1.34422581,9.00267742 1.932,9.53016129 2.63448387,9.97703226 L2.63448387,11.284 Z M5.26874194,12.4552581 C4.66358065,12.2847742 4.08416129,12.0632581 3.53770968,11.7940968 L3.53770968,10.4765161 C4.07196774,10.7323548 4.65229032,10.9466452 5.26874194,11.1128387 L5.26874194,12.4552581 Z M7.90322581,12.864871 C7.31274194,12.8425161 6.734,12.7754516 6.17196774,12.6677419 L6.17196774,11.3165161 C6.72858065,11.4183548 7.30732258,11.4831613 7.90322581,11.5048387 L7.90322581,12.864871 Z M10.5377097,12.6677419 C9.97567742,12.7754516 9.39693548,12.8427419 8.80645161,12.864871 L8.80645161,11.5048387 C9.40235484,11.4833871 9.98109677,11.4185806 10.5377097,11.3165161 L10.5377097,12.6677419 Z M15.8064516,8.76896774 C15.8064516,9.52022581 15.4736129,10.2222581 14.8937419,10.694871 C14.6345161,10.9062258 14.3601613,11.1013226 14.0751935,11.2837742 L14.0751935,11.0615806 C14.0751935,10.8122903 13.872871,10.6099677 13.6235806,10.6099677 C13.3742903,10.6099677 13.1719677,10.8122903 13.1719677,11.0615806 L13.1719677,11.793871 C12.6255161,12.0632581 12.0460968,12.2845484 11.4409355,12.4550323 L11.4409355,11.1123871 C13.335,10.6016129 14.8887742,9.63629032 15.8064516,8.41625806 L15.8064516,8.76896774 Z M10.9127742,10.3222903 C10.9019355,10.3240968 10.8913226,10.3265806 10.8807097,10.3292903 C10.0915161,10.5108387 9.24112903,10.6101935 8.35483871,10.6101935 C7.46854839,10.6101935 6.61816129,10.5108387 5.82896774,10.3292903 C5.81835484,10.3265806 5.80774194,10.3243226 5.79690323,10.3222903 C2.94429032,9.65683871 0.903225806,7.91135484 0.903225806,5.86825806 C0.903225806,3.25341935 4.24606452,1.12632258 8.35483871,1.12632258 C12.4636129,1.12632258 15.8064516,3.25341935 15.8064516,5.86825806 C15.8064516,7.91135484 13.7653871,9.65683871 10.9127742,10.3222903 Z" id="Shape"></path>
            <path d="M12.6207742,5.00477419 C12.5485161,4.75074194 12.3247419,4.55383871 12.0226129,4.47864516 L10.2985806,4.04870968 L8.95977419,3.05019355 C8.62580645,2.80135484 8.08387097,2.80135484 7.75012903,3.05019355 L6.41132258,4.04870968 L4.68706452,4.47864516 C4.38493548,4.55383871 4.1613871,4.75074194 4.08912903,5.00477419 C4.02545161,5.22854839 4.08890323,5.46632258 4.25893548,5.64132258 L5.38525806,6.79970968 L5.39519355,7.69751613 C5.39767742,7.89780645 5.49116129,8.08206452 5.65893548,8.21664516 C5.87954839,8.39367742 6.20832258,8.46367742 6.51722581,8.39909677 L8.31035484,8.02358065 C8.33767742,8.01748387 8.37109677,8.01748387 8.39977419,8.02358065 L10.1929032,8.39909677 C10.2687742,8.41490323 10.346,8.42280645 10.4225484,8.42280645 C10.6569355,8.42280645 10.8847742,8.35009677 11.0509677,8.21664516 C11.2187419,8.08206452 11.3122258,7.89758065 11.3147097,7.69729032 L11.3246452,6.79970968 L12.4509677,5.64132258 C12.621,5.46632258 12.6844516,5.22832258 12.6207742,5.00477419 Z M10.5998065,6.24896774 C10.4873548,6.36480645 10.4243548,6.5133871 10.4225484,6.66806452 L10.4132903,7.51935484 C10.4017742,7.51890323 10.3898065,7.51754839 10.3778387,7.51483871 L8.58516129,7.13932258 C8.50974194,7.12351613 8.43229032,7.1156129 8.35483871,7.1156129 C8.2773871,7.1156129 8.19993548,7.12351613 8.12474194,7.13932258 L6.33206452,7.51483871 C6.31964516,7.51732258 6.30790323,7.51890323 6.2963871,7.51935484 L6.28712903,6.66783871 C6.28532258,6.5133871 6.22232258,6.36458065 6.10987097,6.24896774 L5.17503226,5.28770968 L6.64141935,4.92212903 C6.75025806,4.89480645 6.84803226,4.84941935 6.93225806,4.78687097 L8.28529032,3.77706452 C8.31554839,3.76080645 8.39435484,3.76080645 8.41941935,3.77390323 L9.77809677,4.78732258 C9.86164516,4.84941935 9.95941935,4.89503226 10.0687097,4.92212903 L11.5335161,5.28883871 L10.5998065,6.24896774 Z" id="Shape"></path>
            <path d="M10.9861613,1.89880645 C10.7443226,1.8373871 10.4986452,1.98416129 10.4376774,2.226 C10.3764839,2.46783871 10.5228065,2.71329032 10.7646452,2.77448387 C12.969871,3.33222581 14.4516129,4.57551613 14.4516129,5.86825806 C14.4516129,6.26929032 14.3107097,6.66829032 14.0327419,7.05419355 C13.7518387,7.44393548 13.3458387,7.80251613 12.8264839,8.12045161 C12.6137742,8.25051613 12.5469355,8.52870968 12.677,8.74141935 C12.762129,8.88074194 12.9104839,8.95751613 13.0626774,8.95751613 C13.1428387,8.95751613 13.2243548,8.93606452 13.2979677,8.89112903 C13.9202903,8.51041935 14.4139032,8.07032258 14.7652581,7.58258065 C15.1563548,7.03951613 15.3548387,6.46280645 15.3548387,5.86825806 C15.3548387,4.12796774 13.6400645,2.56990323 10.9861613,1.89880645 Z" id="Shape"></path>
        </g>
    </g>
</svg>