<?xml version="1.0" encoding="UTF-8"?>
<svg width="9px" height="5px" viewBox="0 0 9 5" version="1.1" xmlns="http://www.w3.org/2000/svg" xmlns:xlink="http://www.w3.org/1999/xlink">
    <!-- Generator: Sketch 49.3 (51167) - http://www.bohemiancoding.com/sketch -->
    <title>Chevron</title>
    <desc>Created with Sketch.</desc>
    <defs></defs>
    <g id="Chevron" stroke="none" stroke-width="1" fill="none" fill-rule="evenodd">
        <path d="M2.66378649,-1.8929733 C2.50843697,-2.040672 2.26539874,-2.0347885 2.11713879,-1.87973998 C2.04233636,-1.80730689 2,-1.70686825 2,-1.60184028 C2,-1.4968123 2.04233636,-1.39637366 2.11713879,-1.32394058 L6.03478064,2.50048862 L2.11713879,6.32491782 C2.04233636,6.39735091 2,6.49778955 2,6.60281752 C2,6.70784549 2.04233636,6.80828414 2.11713879,6.88071722 C2.18642328,6.95958518 2.28650934,7.00319732 2.39046264,6.99981709 C2.4911623,6.99928435 2.58826209,6.96167468 2.66378649,6.89395054 L6.88078303,2.79162164 C6.95708637,2.71460393 7,2.60980698 7,2.50048862 C7,2.39117026 6.95708637,2.28637331 6.88078303,2.2093556 L2.66378649,-1.8929733 Z" id="Shape" stroke="#000000" fill="#000000" fill-rule="nonzero" transform="translate(4.500000, 2.500000) rotate(-270.000000) translate(-4.500000, -2.500000) "></path>
    </g>
</svg>