<?xml version="1.0" encoding="UTF-8"?>
<svg width="20px" height="20px" viewBox="0 0 20 20" version="1.1" xmlns="http://www.w3.org/2000/svg" xmlns:xlink="http://www.w3.org/1999/xlink">
    <!-- Generator: Sketch 49.3 (51167) - http://www.bohemiancoding.com/sketch -->
    <title>Closs-Button</title>
    <desc>Created with Sketch.</desc>
    <defs></defs>
    <g id="Closs-Button" stroke="none" stroke-width="1" fill="none" fill-rule="evenodd">
        <g id="Group" fill="#EF3B29">
            <path d="M12,0.150600153 L12,19.8494485 C12,19.9593922 11.9994174,20.035663 11.9955699,20.1013161 C11.9917224,20.1669692 11.9846101,20.2217029 11.9715506,20.286159 C11.9584911,20.350615 11.9395616,20.4245017 11.9114629,20.5307942 L11.899798,20.5749201 C11.8495696,20.7649254 11.7324219,20.9304041 11.5699043,21.0409163 L11.5699043,21.0409163 C11.4042966,21.1535297 11.2141863,21.2249589 11.0153969,21.2492583 L10.6066971,21.2992167 C10.474115,21.3154231 10.4288814,21.3211493 10.3860641,21.3254874 C10.3432469,21.3298256 10.310835,21.3317992 10.2678078,21.3326883 C10.2247806,21.3335774 10.1791864,21.3333819 10.0456174,21.3333819 L9.95438258,21.3333819 C9.82081361,21.3333819 9.77521944,21.3335774 9.73219221,21.3326883 C9.68916497,21.3317992 9.65675307,21.3298256 9.61393585,21.3254874 C9.57111863,21.3211493 9.52588504,21.3154231 9.39330292,21.2992167 L8.98460311,21.2492583 C8.78581369,21.2249589 8.59570335,21.1535297 8.43009567,21.0409163 L8.43009567,21.0409163 C8.26757812,20.9304041 8.15043038,20.7649254 8.10020196,20.5749201 L8.08853715,20.5307942 C8.06043843,20.4245017 8.0415089,20.350615 8.0284494,20.286159 C8.0153899,20.2217029 8.00827755,20.1669692 8.00443008,20.1013161 C8.0005826,20.035663 8,19.9593922 8,19.8494485 L8,0.150600153 C8,0.0406564117 8.0005826,-0.0356143556 8.00443008,-0.101267459 C8.00827755,-0.166920562 8.0153899,-0.221654297 8.0284494,-0.286110348 C8.0415089,-0.350566399 8.06043843,-0.424453082 8.08853715,-0.53074555 L8.10020196,-0.574871482 C8.15043038,-0.764876739 8.26757812,-0.930355484 8.43009567,-1.04086765 L8.43009567,-1.04086765 C8.59570335,-1.15348112 8.78581369,-1.22491024 8.98460311,-1.24920972 L9.39330292,-1.29916806 C9.52588504,-1.31537454 9.57111863,-1.32110068 9.61393585,-1.32543883 C9.65675307,-1.32977698 9.68916497,-1.33175061 9.73219221,-1.3326397 C9.77521944,-1.33352878 9.82081361,-1.33333333 9.95438258,-1.33333333 L10.0456174,-1.33333333 C10.1791864,-1.33333333 10.2247806,-1.33352878 10.2678078,-1.3326397 C10.310835,-1.33175061 10.3432469,-1.32977698 10.3860641,-1.32543883 C10.4288814,-1.32110068 10.474115,-1.31537454 10.6066971,-1.29916806 L11.0153969,-1.24920972 C11.2141863,-1.22491024 11.4042966,-1.15348112 11.5699043,-1.04086765 L11.5699043,-1.04086765 C11.7324219,-0.930355484 11.8495696,-0.764876739 11.899798,-0.574871482 L11.9114629,-0.53074555 C11.9395616,-0.424453082 11.9584911,-0.350566399 11.9715506,-0.286110348 C11.9846101,-0.221654297 11.9917224,-0.166920562 11.9955699,-0.101267459 C11.9994174,-0.0356143556 12,0.0406564117 12,0.150600153 Z" id="Rectangle-2-Copy-3" transform="translate(10.000000, 10.000024) rotate(-45.000000) translate(-10.000000, -10.000024) "></path>
            <path d="M12,-0.195827597 L12,20.1958276 C12,20.5702361 11.9381163,20.7217503 11.8219115,20.8695034 C11.7057068,21.0172565 11.5351811,21.133214 11.3178971,21.2122332 C11.1006132,21.2912524 10.8777982,21.3333333 10.3271974,21.3333333 L9.67280255,21.3333333 C9.12220182,21.3333333 8.89938681,21.2912524 8.68210286,21.2122332 C8.46481891,21.133214 8.2942932,21.0172565 8.17808847,20.8695034 C8.06188374,20.7217503 8,20.5702361 8,20.1958276 L8,-0.195827597 C8,-0.570236094 8.06188374,-0.721750299 8.17808847,-0.869503386 C8.2942932,-1.01725647 8.46481891,-1.13321396 8.68210286,-1.21223317 C8.89938681,-1.29125239 9.12220182,-1.33333333 9.67280255,-1.33333333 L10.3271974,-1.33333333 C10.8777982,-1.33333333 11.1006132,-1.29125239 11.3178971,-1.21223317 C11.5351811,-1.13321396 11.7057068,-1.01725647 11.8219115,-0.869503386 C11.9381163,-0.721750299 12,-0.570236094 12,-0.195827597 Z" id="Rectangle-2-Copy-5" transform="translate(10.000000, 10.000000) rotate(45.000000) translate(-10.000000, -10.000000) "></path>
        </g>
    </g>
</svg>