<?xml version="1.0" encoding="UTF-8"?>
<svg width="21px" height="13px" viewBox="0 0 21 13" version="1.1" xmlns="http://www.w3.org/2000/svg" xmlns:xlink="http://www.w3.org/1999/xlink">
    <!-- Generator: Sketch 49.3 (51167) - http://www.bohemiancoding.com/sketch -->
    <title>Dumbbell-White</title>
    <desc>Created with Sketch.</desc>
    <defs></defs>
    <g id="Dumbbell-White" stroke="none" stroke-width="1" fill="none" fill-rule="evenodd">
        <path d="M16.2797978,1.85560609 C16.2797978,1.01312301 15.5564105,0.178359177 14.4278465,0.178359177 L14.1195254,0.178359177 C14.4990854,-0.814510351 14.0927831,-2.2707421 12.9001772,-2.2707421 L11.6454406,-2.2707421 L11.6454406,-3.25797243 C11.64544,-3.51325461 11.438493,-3.72020155 11.1832109,-3.72020219 L9.37632005,-3.72020219 C9.12106494,-3.72016326 8.91416026,-3.51322754 8.91415962,-3.25797243 L8.91415962,-2.2707421 L7.65943693,-2.2707421 C6.46681482,-2.2707421 6.06051485,-0.814510351 6.44007482,0.178359177 L6.13176757,0.178359177 C5.00318739,0.178359177 4.27979781,1.01312301 4.27979781,1.85560609 C4.27979781,2.69806605 5.00318739,3.53282989 6.13176757,3.53282989 L8.91415962,3.53282989 L8.91415962,9.39563894 L6.13176757,9.39563894 C5.00339539,9.39563894 4.27979781,10.229617 4.27979781,11.0717303 C4.27979781,11.9138667 5.00339539,12.7477523 6.13176757,12.7477523 L6.437417,12.7477523 C6.06143931,13.7411534 6.46868685,15.1929477 7.65943693,15.1929477 L8.91415962,15.1929477 L8.91415962,16.1557492 C8.91419854,16.4109772 9.12109202,16.6178707 9.37632005,16.6179096 L11.1832109,16.6179096 C11.438466,16.617909 11.6454017,16.4110043 11.6454406,16.1557492 L11.6454406,15.1929477 L12.9001772,15.1929477 C14.0909088,15.1929477 14.4981702,13.7411534 14.1221971,12.7477523 L14.4278465,12.7477523 C15.5562164,12.7477523 16.2797978,11.9138667 16.2797978,11.0717303 C16.2797978,10.229617 15.5562164,9.39563894 14.4278465,9.39563894 L11.6454406,9.39563894 L11.6454406,3.53282989 L14.4278465,3.53282989 C15.5564105,3.53282989 16.2797978,2.69806605 16.2797978,1.85560609 Z M15.3554122,1.85560609 C15.3554122,2.22816328 15.1523385,2.6084397 14.4278465,2.6084397 L6.13176757,2.6084397 C5.40726864,2.6084397 5.20411866,2.22816328 5.20411866,1.85560609 C5.20411866,1.48302579 5.40726864,1.10272625 6.13176757,1.10272625 L7.65943693,1.10272625 L12.9001772,1.10272625 L14.4278465,1.10272625 C15.1523385,1.10272625 15.3554122,1.48302579 15.3554122,1.85560609 Z M15.3554122,11.0717303 C15.3554122,11.4435017 15.1525327,11.8234314 14.4278465,11.8234314 L12.9001772,11.8234314 L7.65943693,11.8234314 L6.13176757,11.8234314 C5.40708375,11.8234314 5.20411866,11.4435017 5.20411866,11.0717303 C5.20411866,10.699982 5.40708375,10.3200291 6.13176757,10.3200291 L14.4278465,10.3200291 C15.1525327,10.3200291 15.3554122,10.699982 15.3554122,11.0717303 Z M13.2981293,-0.594650765 C13.2981293,-0.218811746 13.1654832,0.157050385 12.9001772,0.157050385 C12.8512274,0.15646336 12.8024951,0.163655917 12.755802,0.178359177 L7.80286683,0.178359177 C7.75647565,0.163754667 7.70807021,0.156563269 7.65943693,0.157050385 C7.12882028,0.157050385 7.12882028,-1.34635192 7.65943693,-1.34635192 L12.9001772,-1.34635192 C13.1654832,-1.34635192 13.2981293,-0.970512896 13.2981293,-0.594650765 Z M13.297667,13.5157008 C13.297667,13.8921407 13.165222,14.2685575 12.9002211,14.2685575 L7.65948316,14.2685575 C7.1294674,14.2685575 7.1294674,12.7628441 7.65948316,12.7628441 C7.70055412,12.7632682 7.74149839,12.7582162 7.78123448,12.7478216 L12.776503,12.7478216 C12.8168751,12.7583911 12.8584927,12.7634445 12.9002211,12.7628441 C13.165222,12.7628441 13.297667,13.1392609 13.297667,13.5157008 Z M10.7210851,-2.795812 L10.7210851,-2.2707421 L9.83859603,-2.2707421 L9.83859603,-2.795812 L10.7210851,-2.795812 Z M10.7210851,3.53282989 L10.7210851,9.39563894 L9.83859603,9.39563894 L9.83859603,3.53282989 L10.7210851,3.53282989 Z M10.7210851,15.1929477 L10.7210851,15.6936119 L9.83859603,15.6936119 L9.83859603,15.1929477 L10.7210851,15.1929477 Z" id="Shape" fill="#FFFFFF" transform="translate(10.279798, 6.448854) rotate(-90.000000) translate(-10.279798, -6.448854) "></path>
    </g>
</svg>