<?xml version="1.0" encoding="UTF-8"?>
<svg width="15px" height="14px" viewBox="0 0 15 14" version="1.1" xmlns="http://www.w3.org/2000/svg" xmlns:xlink="http://www.w3.org/1999/xlink">
    <!-- Generator: Sketch 49.3 (51167) - http://www.bohemiancoding.com/sketch -->
    <title>Home-White</title>
    <desc>Created with Sketch.</desc>
    <defs></defs>
    <g id="Home-White" stroke="none" stroke-width="1" fill="none" fill-rule="evenodd">
        <path d="M14.7720203,6.82201971 L13.2026269,5.32083433 C13.2026269,5.32083433 13.2023224,5.32052983 13.2023224,5.32052983 L7.77217256,0.126672032 C7.68386753,0.0423255106 7.56998451,0 7.45640598,0 C7.34282745,0 7.22894442,0.0423255106 7.1406394,0.126672032 L3.46045148,3.64699741 L0.141096149,6.82201971 C-0.0412993966,6.99619375 -0.0476938982,7.28546882 0.126784645,7.46786437 C0.216612168,7.56165039 0.336585198,7.6088479 0.456862728,7.6088479 C0.570441256,7.6088479 0.684019785,7.56682689 0.772629307,7.48217587 L1.56981051,6.71970768 L1.56981051,13.5429454 C1.56981051,13.7950714 1.77413006,13.9996955 2.02656062,13.9996955 L5.45279548,13.9996955 C5.70522604,13.9996955 5.90954559,13.7950714 5.90954559,13.5429454 L5.90954559,9.94984449 C5.90954559,9.09663527 6.60350126,8.4026796 7.45671048,8.4026796 C8.30991969,8.4026796 9.00387536,9.09663527 9.00387536,9.94984449 L9.00387536,13.5432499 C9.00387536,13.7953759 9.20849942,14 9.46062548,14 L12.8868603,14 C13.1389864,14 13.3436104,13.7953759 13.3436104,13.5432499 L13.3436104,6.71970768 L14.1407916,7.48217587 C14.3228827,7.65634991 14.6118533,7.64995541 14.7866363,7.46786437 C14.9608104,7.28546882 14.9544159,6.99619375 14.7720203,6.82201971 Z M12.4298057,13.0861953 L9.91707109,13.0861953 L9.91707109,9.94984449 C9.91707109,8.59299215 8.81325832,7.48917937 7.45640598,7.48917937 C6.09955364,7.48917937 4.99574086,8.59299215 4.99574086,9.94984449 L4.99574086,13.0864998 L2.48300623,13.0864998 L2.48300623,5.84579246 L7.45610148,1.08889227 L11.0364134,4.51360463 L12.4295012,5.84579246 L12.4295012,13.0861953 L12.4298057,13.0861953 Z" id="Home" fill="#FFFFFF" fill-rule="nonzero"></path>
    </g>
</svg>