<?xml version="1.0" encoding="UTF-8"?>
<svg width="180px" height="60px" viewBox="0 0 180 60" version="1.1" xmlns="http://www.w3.org/2000/svg" xmlns:xlink="http://www.w3.org/1999/xlink">
    <!-- Generator: Sketch 49.3 (51167) - http://www.bohemiancoding.com/sketch -->
    <title>HH-Logo-White</title>
    <desc>Created with Sketch.</desc>
    <defs>
        <polygon id="path-1" points="0.0415769953 0.0794699531 23.5736854 0.0794699531 23.5736854 33.5424418 0.0415769953 33.5424418"></polygon>
    </defs>
    <g id="HH-Logo-White" stroke="none" stroke-width="1" fill="none" fill-rule="evenodd">
        <g id="Page-1" transform="translate(0.661972, 0.000000)">
            <polygon id="Fill-1" fill="#FEFEFE" points="80.3496347 19.3175695 78.447231 18.7234146 80.5496254 15.2041892 75.3083202 19.3901423 77.1727756 19.9770953 75.3933577 23.4963207"></polygon>
            <polygon id="Fill-2" fill="#FEFEFE" points="60.5118127 52.1137305 60.5118127 54.8496131 57.4427047 54.8496131 57.4427047 52.1137305 56.127254 52.1137305 56.127254 58.8818338 57.4427047 58.8818338 57.4427047 55.9938808 60.5118127 55.9938808 60.5118127 58.8818338 61.8178455 58.8818338 61.8178455 52.1137305"></polygon>
            <g id="Group-62" transform="translate(0.000000, 0.234892)">
                <path d="M77.5020676,56.0872559 C77.4161991,56.3573263 77.2890582,56.6008052 77.1209221,56.8171385 C76.9522319,57.0329178 76.7458704,57.2054859 76.5012836,57.3365047 C76.2564197,57.4664155 75.9752695,57.5317864 75.6575559,57.5317864 C75.3462131,57.5317864 75.0681099,57.4678005 74.8238,57.3406596 C74.5789362,57.2140728 74.3722977,57.0453826 74.2041615,56.8354202 C74.0357484,56.6254577 73.9069455,56.3841948 73.8177531,56.1116315 C73.7288376,55.8379601 73.6845183,55.5548709 73.6845183,55.2631948 C73.6845183,54.9837066 73.7271756,54.7086502 73.8133211,54.4377488 C73.8989127,54.1682324 74.0243915,53.9269695 74.1897577,53.7145141 C74.3548469,53.5012277 74.5614854,53.3297676 74.8091192,53.1987488 C75.05703,53.069115 75.3398423,53.0034671 75.6575559,53.0034671 C75.9625277,53.0034671 76.237584,53.0657911 76.4821709,53.189608 C76.7267577,53.3134249 76.9331192,53.48073 77.1018094,53.6901385 C77.2699455,53.9001009 77.4004103,54.1413638 77.4926498,54.4144812 C77.5846122,54.6875986 77.6308704,54.9706878 77.6308704,55.2631948 C77.6308704,55.5424061 77.5876592,55.8177394 77.5020676,56.0872559 M78.0499643,52.9181526 C77.7641052,52.5940681 77.419523,52.3320305 77.0159408,52.1320399 C76.6123587,51.9312183 76.1661192,51.831777 75.6766685,51.831777 C75.1999596,51.831777 74.7584291,51.9259554 74.3518,52.1123732 C73.9448939,52.3001761 73.5939408,52.5522418 73.2986638,52.8705094 C73.0028329,53.187946 72.7709878,53.5538568 72.6025746,53.9665798 C72.4341615,54.3798568 72.3499549,54.8116925 72.3499549,55.2631948 C72.3499549,55.6955845 72.4297296,56.1180023 72.5884479,56.5310023 C72.7474432,56.9437254 72.9712554,57.3104671 73.2604385,57.6312277 C73.5493446,57.9519883 73.8958657,58.2095939 74.2991709,58.4032136 C74.7027531,58.5976643 75.1523164,58.6943357 75.648138,58.6943357 C76.1248469,58.6943357 76.5663775,58.6007113 76.9730066,58.4129085 C77.3796357,58.2264906 77.7292038,57.9741479 78.0214338,57.6600352 C78.3136638,57.3450915 78.542462,56.9830587 78.7078282,56.5736596 C78.8729174,56.1639836 78.955462,55.7329789 78.955462,55.2823075 C78.955462,54.8565657 78.8759643,54.4366408 78.717523,54.0239178 C78.5582507,53.6106408 78.3361005,53.2425141 78.0499643,52.9181526" id="Fill-3" fill="#FEFEFE"></path>
                <path d="M94.0151981,55.3298399 C94.0151981,55.6096052 93.9894376,55.8810606 93.9348695,56.1444831 C93.8805784,56.4087366 93.788616,56.6416897 93.6578742,56.8452812 C93.5285174,57.0485958 93.3565033,57.214239 93.1440479,57.3408258 C92.9307615,57.4679667 92.6687239,57.5316756 92.3573812,57.5316756 C92.0521324,57.5316756 91.7948038,57.4696286 91.5853953,57.3449808 C91.3754329,57.2217178 91.2053577,57.0577366 91.07517,56.8549761 C90.9447052,56.6511075 90.8524657,56.4184315 90.7990056,56.1544549 C90.7449915,55.8907554 90.717846,55.6159761 90.717846,55.3298399 L90.717846,51.8793094 L89.4026723,51.8793094 L89.4026723,55.3298399 C89.4026723,55.7680465 89.4547474,56.1910183 89.5597286,56.5973704 C89.6644329,57.0037225 89.834508,57.3618775 90.069677,57.6696192 C90.304569,57.978192 90.6112028,58.2263798 90.9895784,58.4130746 C91.3674,58.6008775 91.8263812,58.6942249 92.3665221,58.6942249 C92.8881042,58.6942249 93.3357286,58.6050324 93.7110573,58.4272014 C94.0850009,58.2496474 94.3916347,58.0083845 94.6309587,57.7031357 C94.8691746,57.3981638 95.0439587,57.0422249 95.1553108,56.6358728 C95.2652779,56.2284127 95.322339,55.794084 95.322339,55.3298399 L95.322339,51.8793094 L94.0151981,51.8793094 L94.0151981,55.3298399 Z" id="Fill-5" fill="#FEFEFE"></path>
                <path d="M110.443402,55.3769014 C110.255876,55.224831 110.027355,55.0971362 109.757008,54.9960329 C109.487214,54.8943756 109.186951,54.7990892 108.856496,54.7098967 C108.602491,54.6464648 108.378125,54.5863568 108.184505,54.5284648 C107.990885,54.4716808 107.829951,54.4085258 107.703087,54.338723 C107.575669,54.2683662 107.479275,54.1877606 107.412796,54.0952441 C107.34604,54.0032817 107.312524,53.8874977 107.312524,53.746784 C107.312524,53.5055211 107.401162,53.3188263 107.578993,53.1847606 C107.756824,53.0515258 108.027449,52.984493 108.389759,52.984493 C108.593073,52.984493 108.792787,53.0099765 108.990285,53.0614977 C109.186951,53.1121878 109.369491,53.1739577 109.538181,53.2470845 C109.706594,53.3199343 109.849524,53.394723 109.967247,53.4708967 C110.084416,53.5473474 110.165299,53.6077324 110.209895,53.6520516 L110.791585,52.5842347 C110.492707,52.3814742 110.143139,52.2050282 109.742604,52.0557277 C109.3429,51.9064272 108.904139,51.8316385 108.428261,51.8316385 C108.084233,51.8316385 107.763195,51.8776197 107.465148,51.9695822 C107.165993,52.0620986 106.903956,52.1969953 106.678205,52.3748263 C106.453008,52.5529343 106.276285,52.7750845 106.149698,53.041831 C106.022003,53.3091315 105.958848,53.6138263 105.958848,53.9567465 C105.958848,54.2173991 105.998181,54.4414883 106.077956,54.6292911 C106.157454,54.8170939 106.276285,54.9813521 106.435557,55.1248357 C106.594275,55.2674883 106.792881,55.3915822 107.031097,55.4960094 C107.26959,55.6015446 107.55074,55.697662 107.874824,55.7868545 C108.141848,55.8638592 108.383388,55.933662 108.599444,55.9968169 C108.814946,56.0602488 108.999148,56.1306056 109.15205,56.2062254 C109.304951,56.2829531 109.421843,56.3718685 109.504665,56.4729718 C109.587486,56.5751831 109.629036,56.699 109.629036,56.8452535 C109.629036,57.3094977 109.266449,57.5407887 108.541829,57.5407887 C108.281731,57.5407887 108.027449,57.5089343 107.779538,57.4457793 C107.531904,57.3823474 107.305876,57.3039577 107.102838,57.2119953 C106.899524,57.1200329 106.722801,57.0275164 106.5735,56.936108 C106.424477,56.8441455 106.320881,56.7688028 106.264097,56.7120188 L105.682684,57.8460376 C106.076571,58.1258028 106.521148,58.3415822 107.016693,58.4942066 C107.512238,58.646831 108.01443,58.7230047 108.522993,58.7230047 C108.853172,58.7230047 109.1695,58.6861643 109.471425,58.6133146 C109.773073,58.5407418 110.03982,58.4238498 110.272219,58.2659624 C110.503787,58.1064131 110.688266,57.8986667 110.824547,57.641061 C110.961106,57.3834554 111.029801,57.0734977 111.029801,56.7120188 C111.029801,56.4003991 110.978834,56.1386385 110.877177,55.9250751 C110.775519,55.7117887 110.631205,55.5300798 110.443402,55.3769014" id="Fill-7" fill="#FEFEFE"></path>
                <polygon id="Fill-9" fill="#FEFEFE" points="122.868691 55.7296549 125.718419 55.7296549 125.718419 54.662669 122.868691 54.662669 122.868691 53.0328286 126.166597 53.0328286 126.166597 51.8788662 121.55324 51.8788662 121.55324 58.6466925 126.252189 58.6466925 126.252189 57.493838 122.868691 57.493838"></polygon>
                <polygon id="Fill-11" fill="#FEFEFE" points="20.943338 16.5813545 6.25953991 16.5813545 6.25953991 3.40330282 0.000276995305 3.40330282 0 36.8659977 6.25953991 36.8659977 6.25953991 23.1234296 20.943338 23.1234296 20.943338 36.8659977 27.1560657 36.8659977 27.1560657 3.40330282 20.943338 3.40330282"></polygon>
                <path d="M59.2522873,30.1833197 C59.9577944,28.4418502 60.334785,26.5120239 60.334785,24.5356624 L60.334785,3.40341362 L53.9337005,3.40341362 L53.9337005,24.4885732 C53.9337005,27.0300052 53.2752826,29.0537329 52.0517944,30.1833197 C50.7809399,31.3594418 48.945292,31.9713244 46.5451277,31.9713244 C44.1920526,31.9713244 42.3093155,31.3594418 41.0855502,30.1362305 C39.862062,29.0066437 39.1560009,26.982916 39.1560009,24.4885732 L39.1560009,3.40341362 L32.8025596,3.40341362 L32.8025596,24.5356624 C32.8025596,26.6532915 33.1789962,28.5360286 33.8850573,30.1362305 C34.4969399,31.7364324 35.5320714,33.1950897 36.850015,34.4659441 C39.2972685,36.77193 42.7328413,38.0901507 46.4509493,38.0901507 C50.2632357,38.0901507 53.6988085,36.77193 56.1931512,34.4659441 C57.55763,33.1950897 58.5462263,31.7835216 59.2522873,30.1833197" id="Fill-13" fill="#FEFEFE"></path>
                <polygon id="Fill-15" fill="#FEFEFE" points="110.973848 36.8661085 110.973848 9.61614131 122.080806 9.61614131 122.080806 3.40313662 93.7951531 3.40313662 93.7951531 9.61614131 104.855299 9.61614131 104.855299 36.8661085"></polygon>
                <polygon id="Fill-17" fill="#FEFEFE" points="133.986923 3.40349671 127.727106 3.40349671 127.727106 36.8664685 149.235791 36.8664685 149.235791 30.6069286 133.986923 30.6069286"></polygon>
                <g id="Group-21" transform="translate(154.840376, 3.323944)">
                    <mask id="mask-2" fill="white">
                        <use xlink:href="#path-1"></use>
                    </mask>
                    <g id="Clip-20"></g>
                    <polygon id="Fill-19" fill="#FEFEFE" mask="url(#mask-2)" points="23.5737131 6.33928685 23.5737131 0.0794699531 0.0415769953 0.0794699531 0.0415769953 33.5424418 23.5731592 33.5424418 23.5737131 27.2831789 6.25430469 27.2829019 6.25430469 19.1879911 20.4198446 19.1879911 20.4198446 12.9281742 6.3013939 12.9281742 6.3013939 6.33928685"></polygon>
                </g>
                <polygon id="Fill-22" fill="#FEFEFE" points="78.8946061 32.1569113 72.4317516 28.45847 71.6292962 28.9459817 78.8344981 33.0496671 84.4696906 29.6254512 83.6855169 29.1758878"></polygon>
                <polygon id="Fill-24" fill="#FEFEFE" points="78.8443038 33.6996089 71.0817873 29.2787638 70.1300315 29.85713 78.8351629 34.8236559 85.9719469 30.4861864 85.024623 29.9435526"></polygon>
                <polygon id="Fill-26" fill="#FEFEFE" points="68.6290216 30.7692479 78.8351906 36.5975061 87.4743972 31.3473371 86.5270732 30.8044263 78.8440545 35.4731822 69.5824394 30.1897737"></polygon>
                <polygon id="Fill-28" fill="#FEFEFE" points="78.8437498 37.247254 68.0813742 31.1018362 67.2584211 31.6020897 78.8393178 38.2294793 88.858792 32.1405685 88.0294681 31.6652446"></polygon>
                <polygon id="Fill-30" fill="#FEFEFE" points="72.7704061 26.6224343 66.7064249 30.3075798 66.701993 31.2898052 73.600007 27.0980352"></polygon>
                <polygon id="Fill-32" fill="#FEFEFE" points="71.268039 25.7616714 66.7064803 28.5335634 66.6978934 29.6573333 72.2153629 26.3045822"></polygon>
                <polygon id="Fill-34" fill="#FEFEFE" points="66.6978934 27.8837878 70.7129404 25.4431822 69.7656164 24.9005484 66.7070343 26.7597408"></polygon>
                <polygon id="Fill-36" fill="#FEFEFE" points="68.4326319 24.1367615 66.7227399 25.1815878 66.6972563 26.1100761 69.2107117 24.5824469"></polygon>
                <polygon id="Fill-38" fill="#FEFEFE" points="77.0040577 6.11503146 83.4669122 9.81347277 84.2696446 9.32596103 77.0644427 5.22227559 71.4289732 8.64649155 72.2131469 9.09577793"></polygon>
                <polygon id="Fill-40" fill="#FEFEFE" points="77.0546371 4.5723615 84.8168765 8.99320657 85.7689094 8.41484038 77.0637779 3.44803756 69.9267169 7.78578404 70.8740408 8.32841784"></polygon>
                <polygon id="Fill-42" fill="#FEFEFE" points="87.2699192 7.50272254 77.0637502 1.67446432 68.4242667 6.92491033 69.3715906 7.46754413 77.0551634 2.79851127 86.3162244 8.08219671"></polygon>
                <polygon id="Fill-44" fill="#FEFEFE" points="77.0551911 1.02468873 87.8175667 7.17010657 88.6405197 6.66985305 77.0599 0.042186385 67.0398718 6.13137418 67.8691958 6.60642113"></polygon>
                <polygon id="Fill-46" fill="#FEFEFE" points="83.1282577 11.6492592 89.192516 7.96439061 89.1966709 6.98216526 82.2986568 11.1739352"></polygon>
                <polygon id="Fill-48" fill="#FEFEFE" points="83.6833286 11.9676376 84.6306526 12.5102714 89.1922113 9.73837934 89.2010751 8.61460939"></polygon>
                <polygon id="Fill-50" fill="#FEFEFE" points="86.132992 13.3710066 89.1915742 11.5120911 89.200992 10.3880441 85.1856681 12.8283728"></polygon>
                <polygon id="Fill-52" fill="#FEFEFE" points="87.4663089 14.1349042 89.1762009 13.0903549 89.2014075 12.1621437 86.6879521 13.6894958"></polygon>
                <polygon id="Fill-54" fill="#FEFEFE" points="82.9784033 21.0289573 89.189192 24.582807 89.189192 20.807638 83.05153 17.2953376"></polygon>
                <polygon id="Fill-56" fill="#FEFEFE" points="78.8843296 24.4132305 89.1891089 30.3104606 89.1891089 26.5352915 82.2428977 22.5606859"></polygon>
                <polygon id="Fill-58" fill="#FEFEFE" points="77.0164948 13.841954 66.6690582 7.92062535 66.6690582 11.6955174 73.6576498 15.6944986"></polygon>
                <polygon id="Fill-60" fill="#FEFEFE" points="72.8924225 17.2094413 66.668892 13.6483897 66.668892 17.4230047 72.8192958 20.943061"></polygon>
            </g>
        </g>
    </g>
</svg>