<?xml version="1.0" encoding="utf-8"?>
<!-- Generator: Adobe Illustrator 25.0.0, SVG Export Plug-In . SVG Version: 6.00 Build 0)  -->
<svg version="1.1" id="Layer_1" xmlns="http://www.w3.org/2000/svg" xmlns:xlink="http://www.w3.org/1999/xlink" x="0px" y="0px"
	 viewBox="0 0 24 24" style="enable-background:new 0 0 24 24;" xml:space="preserve">
<style type="text/css">
	.st0{fill:#FFFFFF;}
</style>
<path class="st0" d="M12,20.7c0.5,0,1.7-1.4,2.8-3.9c1.1-2.5,1.9-5.6,1.9-7.4c0-2.8-2.1-5.1-4.7-5.1c-2.5,0-4.7,2.2-4.7,5.1
	c0,1.8,0.8,4.9,1.9,7.4C10.3,19.3,11.5,20.7,12,20.7z M12,23c-3.9,0-7-9.5-7-13.6C5,5.3,8.1,2,12,2c3.9,0,7,3.3,7,7.4
	C19,13.5,15.9,23,12,23z M12,11.3c0.6,0,1.2-0.2,1.6-0.7c0.4-0.4,0.7-1,0.7-1.6s-0.2-1.2-0.7-1.6c-0.4-0.4-1-0.7-1.6-0.7
	s-1.2,0.2-1.6,0.7C9.9,7.8,9.7,8.4,9.7,9s0.2,1.2,0.7,1.6C10.8,11.1,11.4,11.3,12,11.3z"/>
</svg>
