<?xml version="1.0" encoding="utf-8"?>
<!-- Generator: Adobe Illustrator 25.0.0, SVG Export Plug-In . SVG Version: 6.00 Build 0)  -->
<svg version="1.1" id="Layer_1" xmlns="http://www.w3.org/2000/svg" xmlns:xlink="http://www.w3.org/1999/xlink" x="0px" y="0px"
	 viewBox="0 0 24 24" style="enable-background:new 0 0 24 24;" xml:space="preserve">
<style type="text/css">
	.st0{fill:#FFFFFF;}
</style>
<path class="st0" d="M20,4H4C3.5,4,3,4.2,2.6,4.6C2.2,5,2,5.5,2,6v12c0,0.5,0.2,1,0.6,1.4C3,19.8,3.5,20,4,20h16
	c0.5,0,1-0.2,1.4-0.6C21.8,19,22,18.5,22,18V6c0-0.5-0.2-1-0.6-1.4C21,4.2,20.5,4,20,4z M4,18V6h16v12H4z"/>
<path class="st0" d="M6,8h2v8H6V8z M9,8h1v8H9V8z M17,8h1v8h-1V8z M13,8h3v8h-3V8z M11,8h1v8h-1V8z"/>
</svg>
