<?xml version="1.0" encoding="UTF-8"?>
<svg width="19px" height="16px" viewBox="0 0 19 16" version="1.1" xmlns="http://www.w3.org/2000/svg" xmlns:xlink="http://www.w3.org/1999/xlink">
    <!-- Generator: Sketch 49.3 (51167) - http://www.bohemiancoding.com/sketch -->
    <title>Coupon-White</title>
    <desc>Created with Sketch.</desc>
    <defs></defs>
    <g id="Coupon-White" stroke="none" stroke-width="1" fill="none" fill-rule="evenodd">
        <path d="M3.29435284,9.80806169 C3.2947207,11.2447479 2.24208806,12.4634963 0.823588215,12.6687372 L0.823588215,15.1744082 L18.1189405,15.1744082 L18.1189405,12.6687372 C16.6983916,12.4658275 15.6430168,11.2464503 15.6430168,9.80806169 C15.6430168,8.36967307 16.6983916,7.15029587 18.1189405,6.94738618 L18.1189405,4.44171514 L0.823588215,4.44171514 L0.823588215,6.94738618 C2.24208806,7.15262703 3.2947207,8.37137543 3.29435284,9.80806169 Z M0,7.33128635 L0,4.02891925 C-5.97267323e-09,3.91943897 0.0433853193,3.81444271 0.120611698,3.73702846 C0.197838077,3.65961421 0.302579526,3.61612334 0.411794119,3.61612335 L18.5307346,3.61612335 C18.6399492,3.61612334 18.7446907,3.65961421 18.821917,3.73702846 C18.8991434,3.81444271 18.9425287,3.91943897 18.9425287,4.02891925 L18.9425287,7.33128635 C18.9425287,7.44076663 18.8991434,7.54576288 18.821917,7.62317713 C18.7446907,7.70059137 18.6399492,7.74408224 18.5307346,7.74408223 C17.3935966,7.74408223 16.4717641,8.66815731 16.4717641,9.80806167 C16.4717641,10.947966 17.3935966,11.8720411 18.5307346,11.8720411 C18.6399492,11.8720411 18.7446907,11.915532 18.821917,11.9929462 C18.8991434,12.0703605 18.9425287,12.1753567 18.9425287,12.284837 L18.9425287,15.5872041 C18.9425287,15.6966844 18.8991434,15.8016806 18.821917,15.8790949 C18.7446907,15.9565091 18.6399492,16 18.5307346,16 L0.411794119,16 C0.30257953,16 0.197838085,15.9565091 0.120611706,15.8790949 C0.0433853279,15.8016806 6.40056612e-16,15.6966844 6.40056612e-16,15.5872041 L6.40056612e-16,12.284837 C6.40056612e-16,12.1753567 0.0433853279,12.0703605 0.120611706,11.9929462 C0.197838085,11.915532 0.30257953,11.8720411 0.411794119,11.8720411 C1.54893213,11.8720411 2.47076463,10.947966 2.47076463,9.80806167 C2.47076463,8.66815731 1.54893213,7.74408223 0.411794119,7.74408223 C0.30257953,7.74408224 0.197838085,7.70059137 0.120611706,7.62317713 C0.0433853279,7.54576288 6.40056612e-16,7.44076663 6.40056612e-16,7.33128635 Z M7.04414993,3.15461756 C6.82445487,3.2136646 6.59860591,3.08300038 6.53970216,2.86277086 C6.48079842,2.64254134 6.61114552,2.41614296 6.83084058,2.3570959 L15.5542868,0.0140664277 C15.7739774,-0.04471841 15.9996192,0.0861173917 16.0583228,0.306325923 L16.5491814,2.14244203 C16.6080851,2.36267155 16.477738,2.58906994 16.258043,2.64811699 C16.0383479,2.70716403 15.8124989,2.57649982 15.7535952,2.3562703 L15.3698031,0.918915021 L7.04332635,3.15461756 L7.04414993,3.15461756 Z M12.3538231,5.6801028 C12.3538231,5.45212193 12.5381896,5.26730691 12.7656172,5.26730691 C12.9930448,5.26730691 13.1774113,5.45212193 13.1774113,5.6801028 L13.1774113,7.33128635 C13.1774113,7.55926723 12.9930448,7.74408224 12.7656172,7.74408224 C12.5381896,7.74408224 12.3538231,7.55926723 12.3538231,7.33128635 L12.3538231,5.6801028 Z M12.3538231,8.9824699 C12.3538231,8.75448902 12.5381896,8.56967401 12.7656172,8.56967401 C12.9930448,8.56967401 13.1774113,8.75448902 13.1774113,8.9824699 L13.1774113,10.6336534 C13.1774113,10.8616343 12.9930448,11.0464493 12.7656172,11.0464493 C12.5381896,11.0464493 12.3538231,10.8616343 12.3538231,10.6336534 L12.3538231,8.9824699 Z M12.3538231,12.284837 C12.3538231,12.0568561 12.5381896,11.8720411 12.7656172,11.8720411 C12.9930448,11.8720411 13.1774113,12.0568561 13.1774113,12.284837 L13.1774113,13.9360205 C13.1774113,14.1640014 12.9930448,14.3488164 12.7656172,14.3488164 C12.5381896,14.3488164 12.3538231,14.1640014 12.3538231,13.9360205 L12.3538231,12.284837 Z" id="Shape" fill="#FFFFFF" fill-rule="nonzero"></path>
    </g>
</svg>