<?xml version="1.0" encoding="UTF-8"?>
<svg width="16px" height="16px" viewBox="0 0 16 16" version="1.1" xmlns="http://www.w3.org/2000/svg" xmlns:xlink="http://www.w3.org/1999/xlink">
    <!-- Generator: Sketch 49.3 (51167) - http://www.bohemiancoding.com/sketch -->
    <title>Schedule-White</title>
    <desc>Created with Sketch.</desc>
    <defs></defs>
    <g id="Schedule-White" stroke="none" stroke-width="1" fill="none" fill-rule="evenodd">
        <g id="Group" fill="#FFFFFF" fill-rule="nonzero">
            <path d="M3.79178082,6.24657534 L2.84931507,6.24657534 C2.60821918,6.24657534 2.4109589,6.44383562 2.4109589,6.68493151 C2.4109589,6.9260274 2.60821918,7.12328767 2.84931507,7.12328767 L3.79178082,7.12328767 C4.03287671,7.12328767 4.23013699,6.9260274 4.23013699,6.68493151 C4.23013699,6.44383562 4.03287671,6.24657534 3.79178082,6.24657534 Z" id="Shape"></path>
            <path d="M6.88219178,6.24657534 L5.93972603,6.24657534 C5.69863014,6.24657534 5.50136986,6.44383562 5.50136986,6.68493151 C5.50136986,6.9260274 5.69863014,7.12328767 5.93972603,7.12328767 L6.88219178,7.12328767 C7.12328767,7.12328767 7.32054795,6.9260274 7.32054795,6.68493151 C7.32054795,6.44383562 7.12328767,6.24657534 6.88219178,6.24657534 Z" id="Shape"></path>
            <path d="M9.03013699,7.12328767 L9.97260274,7.12328767 C10.2136986,7.12328767 10.4109589,6.9260274 10.4109589,6.68493151 C10.4109589,6.44383562 10.2136986,6.24657534 9.97260274,6.24657534 L9.03013699,6.24657534 C8.7890411,6.24657534 8.59178082,6.44383562 8.59178082,6.68493151 C8.59178082,6.9260274 8.7890411,7.12328767 9.03013699,7.12328767 Z" id="Shape"></path>
            <path d="M3.79178082,8.8109589 L2.84931507,8.8109589 C2.60821918,8.8109589 2.4109589,9.00821918 2.4109589,9.24931507 C2.4109589,9.49041096 2.60821918,9.68767123 2.84931507,9.68767123 L3.79178082,9.68767123 C4.03287671,9.68767123 4.23013699,9.49041096 4.23013699,9.24931507 C4.23013699,9.00821918 4.03287671,8.8109589 3.79178082,8.8109589 Z" id="Shape"></path>
            <path d="M6.88219178,8.8109589 L5.93972603,8.8109589 C5.69863014,8.8109589 5.50136986,9.00821918 5.50136986,9.24931507 C5.50136986,9.49041096 5.69863014,9.68767123 5.93972603,9.68767123 L6.88219178,9.68767123 C7.12328767,9.68767123 7.32054795,9.49041096 7.32054795,9.24931507 C7.32054795,9.00821918 7.12328767,8.8109589 6.88219178,8.8109589 Z" id="Shape"></path>
            <path d="M12.7123288,7.49589041 L12.7123288,1.90684932 C12.7123288,1.66575342 12.5150685,1.46849315 12.2739726,1.46849315 L10.1041096,1.46849315 L10.1041096,0.547945205 C10.1041096,0.306849315 9.90684932,0.109589041 9.66575342,0.109589041 C9.42465753,0.109589041 9.22739726,0.306849315 9.22739726,0.547945205 L9.22739726,1.46849315 L2.78356164,1.46849315 L2.78356164,0.547945205 C2.78356164,0.306849315 2.58630137,0.109589041 2.34520548,0.109589041 C2.10410959,0.109589041 1.90684932,0.306849315 1.90684932,0.547945205 L1.90684932,1.46849315 L0.547945205,1.46849315 C0.306849315,1.46849315 0.109589041,1.66575342 0.109589041,1.90684932 L0.109589041,11.4630137 C0.109589041,11.7041096 0.306849315,11.9013699 0.547945205,11.9013699 L7.36438356,11.9013699 C7.49589041,14.1150685 9.35890411,15.890411 11.6164384,15.890411 C13.9616438,15.890411 15.890411,13.9835616 15.890411,11.6164384 C15.890411,9.64383562 14.5315068,7.97808219 12.7123288,7.49589041 Z M0.98630137,2.34520548 L1.90684932,2.34520548 L1.90684932,3.26575342 C1.90684932,3.50684932 2.10410959,3.70410959 2.34520548,3.70410959 C2.58630137,3.70410959 2.78356164,3.50684932 2.78356164,3.26575342 L2.78356164,2.34520548 L9.22739726,2.34520548 L9.22739726,3.26575342 C9.22739726,3.50684932 9.42465753,3.70410959 9.66575342,3.70410959 C9.90684932,3.70410959 10.1041096,3.50684932 10.1041096,3.26575342 L10.1041096,2.34520548 L11.8356164,2.34520548 L11.8356164,4.36164384 L0.98630137,4.36164384 L0.98630137,2.34520548 Z M0.98630137,11.0246575 L0.98630137,5.23835616 L11.8356164,5.23835616 L11.8356164,7.38630137 C11.769863,7.38630137 11.7041096,7.38630137 11.6383562,7.38630137 C9.49041096,7.38630137 7.71506849,8.98630137 7.43013699,11.0465753 L0.98630137,11.0465753 L0.98630137,11.0246575 Z M11.6164384,15.0136986 C9.75342466,15.0136986 8.21917808,13.5013699 8.21917808,11.6164384 C8.21917808,9.75342466 9.73150685,8.21917808 11.6164384,8.21917808 C13.5013699,8.21917808 15.0136986,9.75342466 15.0136986,11.6164384 C15.0136986,13.5013699 13.5013699,15.0136986 11.6164384,15.0136986 Z" id="Shape"></path>
            <path d="M13.1506849,11.2876712 L12.0547945,11.2876712 L12.0547945,9.11780822 C12.0547945,8.87671233 11.8575342,8.67945205 11.6164384,8.67945205 C11.3753425,8.67945205 11.1780822,8.87671233 11.1780822,9.11780822 L11.1780822,11.7260274 C11.1780822,11.9671233 11.3753425,12.1643836 11.6164384,12.1643836 L13.1506849,12.1643836 C13.3917808,12.1643836 13.5890411,11.9671233 13.5890411,11.7260274 C13.5890411,11.4849315 13.3917808,11.2876712 13.1506849,11.2876712 Z" id="Shape"></path>
        </g>
    </g>
</svg>