<?xml version="1.0" encoding="utf-8"?>
<!-- Generator: Adobe Illustrator 25.0.0, SVG Export Plug-In . SVG Version: 6.00 Build 0)  -->
<svg version="1.1" id="Layer_1" xmlns="http://www.w3.org/2000/svg" xmlns:xlink="http://www.w3.org/1999/xlink" x="0px" y="0px"
	 viewBox="0 0 24 24" style="enable-background:new 0 0 24 24;" xml:space="preserve">
<style type="text/css">
	.st0{fill:none;stroke:#FCFCFC;stroke-width:1.5;}
	.st1{fill:#FFFFFF;}
</style>
<path class="st0" d="M6.9,16.8V15c0-0.6-0.4-1-1-1H4c-0.6,0-1,0.4-1,1v0.7 M6.9,16.8c1.9-0.3,6.7-0.8,10.1,0 M6.9,16.8v3.1 M17,16.8
	v3.1 M17,16.8V15c0-0.6,0.4-1,1-1h2.1c0.6,0,1,0.4,1,1v0.7 M17,19.9c-2,0.2-6.7,0.5-10.1,0 M17,19.9V22c0,0.6,0.4,1,1,1h2.1
	c0.6,0,1-0.4,1-1v-0.9 M6.9,19.9V22c0,0.6-0.4,1-1,1H4c-0.6,0-1-0.4-1-1v-0.9 M21.1,15.7H22c0.6,0,1,0.4,1,1v3.4c0,0.6-0.4,1-1,1
	h-0.9 M21.1,15.7v5.4 M3,15.7H2c-0.6,0-1,0.4-1,1v3.4c0,0.6,0.4,1,1,1h1 M3,15.7v5.4"/>
<circle class="st1" cx="8.5" cy="3.5" r="2.5"/>
<circle class="st1" cx="8.5" cy="9.5" r="2.5"/>
<circle class="st1" cx="15.5" cy="3.5" r="2.5"/>
<ellipse class="st1" cx="15.5" cy="8" rx="2.5" ry="1"/>
</svg>
