<?xml version="1.0" encoding="UTF-8"?>
<svg width="10px" height="10px" viewBox="0 0 10 10" version="1.1" xmlns="http://www.w3.org/2000/svg" xmlns:xlink="http://www.w3.org/1999/xlink">
    <!-- Generator: Sketch 49.3 (51167) - http://www.bohemiancoding.com/sketch -->
    <title>SEARCH</title>
    <desc>Created with Sketch.</desc>
    <defs></defs>
    <g id="SEARCH" stroke="none" stroke-width="1" fill="none" fill-rule="evenodd">
        <path d="M7.83268842,6.88986878 L9.80473567,8.86191604 C10.0650881,9.12226849 10.0650881,9.54438322 9.80473567,9.80473567 C9.54438322,10.0650881 9.12226849,10.0650881 8.86191604,9.80473567 L6.88986878,7.83268842 C6.17322496,8.35713804 5.28946196,8.66676393 4.33338198,8.66676393 C1.9401212,8.66676393 0,6.72664276 0,4.33338198 C0,1.9401212 1.9401212,0 4.33338198,0 C6.72664276,0 8.66676393,1.9401212 8.66676393,4.33338198 C8.66676393,5.28946196 8.35713804,6.17322496 7.83268842,6.88986878 Z M4.33333333,7.55555556 C6.11291753,7.55555556 7.55555556,6.11291753 7.55555556,4.33333333 C7.55555556,2.55374913 6.11291753,1.11111111 4.33333333,1.11111111 C2.55374913,1.11111111 1.11111111,2.55374913 1.11111111,4.33333333 C1.11111111,6.11291753 2.55374913,7.55555556 4.33333333,7.55555556 Z" id="Shape" fill="#EF3B29" fill-rule="nonzero"></path>
    </g>
</svg>