<?xml version="1.0" encoding="utf-8"?>
<!-- Generator: Adobe Illustrator 25.0.0, SVG Export Plug-In . SVG Version: 6.00 Build 0)  -->
<svg version="1.1" id="Layer_1" xmlns="http://www.w3.org/2000/svg" xmlns:xlink="http://www.w3.org/1999/xlink" x="0px" y="0px"
	 viewBox="0 0 24 24" style="enable-background:new 0 0 24 24;" xml:space="preserve">
<style type="text/css">
	.st0{fill:#FFFFFF;}
</style>
<path class="st0" d="M13.4,13.9c0.1-0.1,0.1-0.1,0.1-0.2c1.2-1.6,2.8-2.5,4.7-2.9c1.7-0.3,3.2,0.3,4.4,1.7c1.1,1.2,1.5,2.7,1.4,4.4
	c0,0.8-0.2,1.6-0.5,2.3c-0.2,0.5-0.5,1-0.8,1.5c-0.4,0.5-0.9,1-1.4,1.3c-1,0.6-2,1.1-3.1,1.4c-1.3,0.4-2.7,0.6-4,0.6
	c-2.7,0.1-5.4-0.2-8-1c-1.2-0.4-2.3-0.8-3.4-1.5C2,21,1.3,20.4,0.6,19.6c-0.3-0.3-0.5-0.7-0.5-1.2c-0.2-1-0.2-2.1,0-3.1
	c0.2-1.6,0.4-3.1,0.9-4.6c0.8-2.4,2-4.4,3.6-6.3c0.9-1,1.8-1.9,2.8-2.7c1-0.8,2-1.3,3.2-1.6c0.8-0.2,1.5-0.2,2.3,0
	c0.4,0.1,0.7,0.3,1.1,0.6c0.7,0.6,1.1,1.3,1,2.2c0,1.8-0.7,3.3-2.1,4.4c-1.2,1-2.6,0.8-3.5,0c0,0-0.1,0-0.1-0.1
	c0.2,1.8-0.1,3.4-0.8,5c0.1,0,0.2,0,0.3-0.1c0.7-0.2,1.4-0.2,2.2-0.1c0.9,0.2,1.7,0.6,2.2,1.5C13.4,13.8,13.4,13.9,13.4,13.9z
	 M12.8,22c1.6,0,3-0.1,4.4-0.5c1-0.2,1.9-0.6,2.8-1.1c0.9-0.6,1.5-1.4,1.8-2.5c0.3-1,0.3-2.1,0-3.1c-0.3-0.9-0.8-1.5-1.7-1.7
	c-0.8-0.3-1.6-0.2-2.3,0c-1.1,0.3-2,1-2.8,1.8c-0.1,0.2-0.3,0.3-0.4,0.5c-0.3,0.3-0.7,0.5-1.1,0.5c-0.4,0-0.8-0.2-1.2-0.5
	c-0.2-0.2-0.3-0.3-0.5-0.5c-0.5-0.5-1.1-0.8-1.8-0.7c-0.4,0-0.7,0.1-1.1,0.2c-0.3,0.1-0.7,0.2-1,0.3c-0.3,0.1-0.6,0-0.9-0.1
	c-0.4-0.2-0.8-0.8-0.5-1.3c0.1-0.2,0.1-0.3,0.2-0.5c0.5-1.2,0.9-2.5,1-3.8c0.1-0.7,0.1-1.3,0.1-2c0-0.3,0-0.5,0.1-0.8
	c0.1-0.6,0.5-1.1,1.1-1.2C9,4.7,9.3,4.8,9.5,5c0.1,0.1,0.3,0.2,0.4,0.3c1,0.8,2.4,0.5,3.1-0.4c0.2-0.3,0.4-0.6,0.5-1
	c0.1-0.6,0-1.4-0.9-1.6c0,0-0.1,0-0.1,0c-0.5-0.1-0.9-0.1-1.4,0c-1,0.2-1.8,0.7-2.6,1.3c-1.6,1.2-2.9,2.7-4,4.4
	c-0.7,1.1-1.2,2.2-1.6,3.4c-0.4,1.4-0.7,2.8-0.8,4.3c-0.1,0.7,0,1.5,0.1,2.2c0,0.1,0.1,0.2,0.1,0.3c0.5,0.7,1.2,1.2,1.9,1.6
	c0.6,0.4,1.3,0.7,2,1C8.4,21.6,10.7,22,12.8,22z"/>
</svg>
