<?xml version="1.0" encoding="UTF-8"?>
<svg width="20px" height="20px" viewBox="0 0 20 20" version="1.1" xmlns="http://www.w3.org/2000/svg" xmlns:xlink="http://www.w3.org/1999/xlink">
    <!-- Generator: Sketch 49.3 (51167) - http://www.bohemiancoding.com/sketch -->
    <title>User-Black</title>
    <desc>Created with Sketch.</desc>
    <defs></defs>
    <g id="User-Black" stroke="none" stroke-width="1" fill="none" fill-rule="evenodd">
        <path d="M10,0 C4.47894047,0 0,4.47893519 0,10 C0,15.5210426 4.47894047,20 10,20 C15.5210593,20 20,15.5210426 20,10 C20,4.47893519 15.5210593,0 10,0 Z M10,1.09470026 C14.9200473,1.09470026 18.9052997,5.07994579 18.9052997,10 C18.9052997,12.7675274 17.6425186,15.240352 15.6646394,16.872285 C15.2275965,14.6619479 14.1805014,12.7957566 12.8410078,11.6507385 C13.655382,10.8893959 14.1702867,9.80899364 14.1702867,8.60990443 C14.1702867,6.3133053 12.2965997,4.43961772 10,4.43961772 C7.70340003,4.43961772 5.82971329,6.3133053 5.82971329,8.60990443 C5.82971329,9.80899364 6.34461776,10.8893959 7.15899218,11.6507385 C5.81949859,12.7957566 4.77240354,14.6619479 4.33536056,16.872285 C2.35748142,15.240352 1.09470026,12.7675274 1.09470026,10 C1.09470026,5.07994579 5.07995246,1.09470026 10,1.09470026 Z M10,5.55169418 C11.6955888,5.55169418 13.0582103,6.9143159 13.0582103,8.60990443 C13.0582103,10.305493 11.6955888,11.6681147 10,11.6681147 C8.30441091,11.6681147 6.94178975,10.305493 6.94178975,8.60990443 C6.94178975,6.9143159 8.30441091,5.55169418 10,5.55169418 Z M8.10599479,12.319722 C8.67582248,12.6128289 9.31680389,12.7801911 10,12.7801911 C10.6831958,12.7801911 11.3241775,12.6128289 11.8940052,12.319722 C13.1675265,13.2958602 14.3084558,15.2384542 14.6568202,17.5847089 C13.3016677,18.418277 11.7094139,18.9052997 10,18.9052997 C8.29058586,18.9052997 6.69833258,18.418277 5.34317984,17.5847089 C5.69154419,15.2384542 6.83247347,13.2958602 8.10599479,12.319722 Z" id="Shape" fill="#000000" fill-rule="nonzero"></path>
    </g>
</svg>