<?xml version="1.0" encoding="UTF-8"?>
<svg width="16px" height="16px" viewBox="0 0 16 16" version="1.1" xmlns="http://www.w3.org/2000/svg" xmlns:xlink="http://www.w3.org/1999/xlink">
    <!-- Generator: Sketch 49.3 (51167) - http://www.bohemiancoding.com/sketch -->
    <title>User-White</title>
    <desc>Created with Sketch.</desc>
    <defs></defs>
    <g id="User-White" stroke="none" stroke-width="1" fill="none" fill-rule="evenodd">
        <path d="M8,0 C3.58315238,0 0,3.58314815 0,8 C0,12.4168341 3.58315238,16 8,16 C12.4168474,16 16,12.4168341 16,8 C16,3.58314815 12.4168474,0 8,0 Z M8,0.875760209 C11.9360378,0.875760209 15.1242398,4.06395663 15.1242398,8 C15.1242398,10.2140219 14.1140149,12.1922816 12.5317116,13.497828 C12.1820772,11.7295584 11.3444011,10.2366053 10.2728063,9.32059079 C10.9243056,8.71151675 11.3362294,7.84719491 11.3362294,6.88792354 C11.3362294,5.05064424 9.83727975,3.55169418 8,3.55169418 C6.16272003,3.55169418 4.66377063,5.05064424 4.66377063,6.88792354 C4.66377063,7.84719491 5.07569421,8.71151675 5.72719374,9.32059079 C4.65559887,10.2366053 3.81792284,11.7295584 3.46828844,13.497828 C1.88598514,12.1922816 0.875760209,10.2140219 0.875760209,8 C0.875760209,4.06395663 4.06396197,0.875760209 8,0.875760209 Z M8,4.44135534 C9.35647105,4.44135534 10.4465682,5.53145272 10.4465682,6.88792354 C10.4465682,8.24439437 9.35647105,9.33449175 8,9.33449175 C6.64352873,9.33449175 5.5534318,8.24439437 5.5534318,6.88792354 C5.5534318,5.53145272 6.64352873,4.44135534 8,4.44135534 Z M6.48479583,9.85577758 C6.94065799,10.0902631 7.45344311,10.2241529 8,10.2241529 C8.54655666,10.2241529 9.05934201,10.0902631 9.51520417,9.85577758 C10.5340212,10.6366881 11.4467646,12.1907634 11.7254561,14.0677672 C10.6413342,14.7346216 9.36753109,15.1242398 8,15.1242398 C6.63246868,15.1242398 5.35866606,14.7346216 4.27454387,14.0677672 C4.55323535,12.1907634 5.46597877,10.6366881 6.48479583,9.85577758 Z" id="Shape" fill="#FFFFFF" fill-rule="nonzero"></path>
    </g>
</svg>