<?xml version="1.0" encoding="utf-8"?>
<!-- Generator: Adobe Illustrator 25.0.0, SVG Export Plug-In . SVG Version: 6.00 Build 0)  -->
<svg version="1.1" id="Layer_1" xmlns="http://www.w3.org/2000/svg" xmlns:xlink="http://www.w3.org/1999/xlink" x="0px" y="0px"
	 viewBox="0 0 24 24" style="enable-background:new 0 0 24 24;" xml:space="preserve">
<style type="text/css">
	.st0{fill:#FFFFFF;}
</style>
<path class="st0" d="M20.8,9c-0.1,0-1.8,0.4-4,1.8c-0.3-1.6-1.3-4.5-4.1-7.5L12,2.5l-0.7,0.8c-2.8,3-3.8,5.9-4.1,7.5
	C5,9.4,3.3,9.1,3.2,9L2,8.8V10c0,7.3,3.9,12,10,12c6,0,10-4.8,10-12V8.8L20.8,9z M9,12c0,0,0.2-3.1,3-6.5c2.8,3.4,3,6.5,3,6.5v0.1
	c-1.1,0.9-2.1,2-3,3.2c-0.9-1.1-1.9-2.2-3-3.1V12z M12,20c-5.3,0-7.5-4.2-7.9-8.6c1.7,0.7,4.6,2.4,7.1,6.1l0.8,1.2l0.8-1.3
	c2.4-3.7,5.4-5.4,7.1-6.1C19.5,15.7,17.3,20,12,20z"/>
</svg>
