<?xml version="1.0" standalone="no"?>
<!DOCTYPE svg PUBLIC "-//W3C//DTD SVG 20010904//EN"
 "http://www.w3.org/TR/2001/REC-SVG-20010904/DTD/svg10.dtd">
<svg version="1.0" xmlns="http://www.w3.org/2000/svg"
 width="300.000000pt" height="300.000000pt" viewBox="0 0 300.000000 300.000000"
 preserveAspectRatio="xMidYMid meet">
<metadata>
Created by potrace 1.11, written by Peter Selinger 2001-2013
</metadata>
<g transform="translate(0.000000,300.000000) scale(0.100000,-0.100000)"
fill="#000000" stroke="none">
<path d="M1346 2875 c-48 -30 -91 -55 -97 -55 -5 0 -9 -4 -9 -10 0 -5 -5 -10
-10 -10 -6 0 -79 -42 -163 -94 -83 -51 -203 -124 -264 -161 -62 -38 -113 -71
-113 -74 0 -3 12 -13 28 -21 29 -17 14 -26 580 319 74 44 135 81 137 81 1 0
183 -103 404 -230 l401 -229 30 18 c24 14 28 20 18 28 -7 6 -186 110 -398 231
-212 121 -401 229 -421 241 l-35 21 -88 -55z"/>
<path d="M1136 2625 c-158 -96 -291 -175 -295 -175 -9 -1 -54 -40 -50 -44 2
-2 19 -11 37 -20 32 -16 34 -16 70 6 20 13 44 28 54 33 57 34 308 187 385 236
l92 58 43 -23 c24 -13 181 -102 349 -198 l306 -175 38 22 c20 13 33 25 28 28
-35 21 -430 246 -473 270 -30 17 -104 59 -164 94 -60 35 -114 63 -120 63 -6 0
-141 -79 -300 -175z"/>
<path d="M1308 2597 c-64 -39 -130 -79 -145 -88 -81 -48 -249 -151 -255 -157
-4 -4 8 -17 26 -29 l34 -22 83 53 c46 28 91 55 99 59 8 3 58 33 110 66 52 33
114 70 136 82 l42 21 118 -67 c66 -37 133 -75 149 -85 17 -9 55 -31 85 -47 30
-17 91 -52 135 -77 44 -25 87 -46 95 -46 19 1 80 50 62 50 -10 0 -321 173
-432 240 -62 37 -212 120 -218 120 -4 0 -60 -33 -124 -73z"/>
<path d="M1230 2416 c-112 -67 -205 -127 -207 -133 -2 -5 9 -15 23 -22 25 -11
34 -8 103 35 95 59 180 111 206 127 11 7 32 20 47 30 l27 18 203 -117 c112
-64 221 -127 242 -139 37 -21 41 -21 68 -6 15 9 28 18 28 21 0 4 -379 223
-496 287 l-41 22 -203 -123z"/>
<path d="M2316 2394 c-11 -8 -125 -78 -254 -156 l-234 -142 24 -18 c13 -9 27
-18 32 -18 5 0 49 24 98 53 122 72 118 69 167 101 25 16 65 41 90 55 114 66
111 63 105 101 -7 43 -5 41 -28 24z"/>
<path d="M655 2195 c0 -75 5 -139 11 -145 5 -5 123 -74 261 -154 l251 -143
121 65 c118 65 139 84 104 96 -10 3 -31 13 -48 23 -37 22 -143 83 -170 98 -11
6 -100 58 -198 114 -98 56 -199 114 -225 128 -26 14 -56 32 -67 39 -38 27 -41
19 -40 -121z"/>
<path d="M2300 2260 c-14 -11 -30 -20 -37 -20 -6 0 -13 -3 -15 -7 -1 -5 -70
-48 -153 -97 -82 -50 -154 -93 -158 -97 -5 -3 8 -16 28 -28 l36 -21 92 56
c140 86 141 87 199 121 50 30 54 35 53 69 0 44 -11 50 -45 24z"/>
<path d="M2305 2129 c-16 -10 -37 -22 -45 -26 -44 -22 -210 -129 -210 -136 0
-4 15 -14 33 -23 l34 -16 109 67 c60 37 110 68 112 70 7 6 10 85 4 84 -4 0
-20 -9 -37 -20z"/>
<path d="M2242 1959 c-45 -28 -82 -54 -82 -57 0 -4 12 -13 27 -20 25 -11 33
-9 88 25 33 20 62 38 64 39 9 8 7 64 -3 64 -6 0 -48 -23 -94 -51z"/>
<path d="M659 1908 c-1 -2 -2 -66 -3 -142 l-2 -139 45 -29 c25 -15 58 -34 73
-41 15 -6 28 -15 28 -19 0 -5 5 -8 10 -8 6 0 65 -31 131 -70 66 -38 133 -77
148 -85 l29 -14 2 92 c3 141 2 188 -1 191 -2 1 -94 54 -204 116 -110 62 -212
122 -227 132 -16 11 -29 18 -29 16z"/>
<path d="M1518 1662 c-114 -86 -207 -160 -207 -163 -1 -3 33 -16 74 -28 l76
-22 -57 -107 c-31 -59 -66 -123 -78 -142 -12 -22 -15 -31 -6 -24 8 6 94 74
190 150 96 77 186 147 199 157 l24 16 -29 12 c-16 6 -33 12 -39 13 -5 2 -29 8
-51 16 l-42 13 68 107 c37 59 75 119 85 134 9 14 13 26 9 25 -5 0 -102 -71
-216 -157z"/>
<path d="M1879 1536 c0 -53 -1 -112 -1 -131 0 -19 1 -39 1 -44 1 -5 74 -51
164 -102 89 -51 191 -110 226 -131 35 -22 66 -37 69 -34 6 7 10 243 4 267 -2
9 -21 25 -43 35 -21 11 -39 22 -39 27 0 4 -4 7 -9 7 -5 0 -84 43 -176 96 -91
52 -173 98 -181 101 -11 4 -14 -12 -15 -91z"/>
<path d="M1774 1216 c-22 -13 -71 -40 -110 -61 -96 -53 -99 -55 -72 -70 13 -6
182 -102 376 -214 195 -111 359 -204 366 -207 9 -3 11 31 11 135 -1 77 -3 142
-5 144 -10 9 -498 287 -511 291 -8 3 -32 -5 -55 -18z"/>
<path d="M721 1081 c-56 -34 -64 -42 -65 -70 -1 -17 2 -31 6 -31 17 0 178 99
178 109 0 6 -43 31 -53 31 -1 0 -31 -17 -66 -39z"/>
<path d="M815 1022 c-33 -20 -71 -43 -85 -50 -48 -25 -70 -48 -72 -72 -3 -63
-5 -64 152 32 l151 91 -28 19 c-39 25 -50 23 -118 -20z"/>
<path d="M830 899 c-91 -56 -167 -103 -168 -104 -7 -6 -8 -65 -2 -74 5 -10 22
0 269 150 l143 88 -33 20 c-19 12 -36 21 -39 21 -3 0 -79 -46 -170 -101z"/>
<path d="M954 841 c-87 -53 -178 -109 -201 -124 -24 -15 -45 -27 -49 -27 -3 0
-16 -8 -27 -17 -20 -17 -29 -64 -15 -79 3 -2 88 46 189 107 101 62 214 130
252 152 37 23 67 43 67 47 0 3 -13 12 -29 21 -28 16 -28 16 -187 -80z"/>
<path d="M1057 784 c-35 -19 -34 -27 6 -47 41 -21 130 -71 337 -190 156 -89
166 -94 190 -81 14 7 90 54 170 104 80 49 162 99 183 110 42 23 44 40 6 54
-22 7 -49 -7 -201 -102 l-177 -110 -216 124 c-291 167 -265 155 -298 138z"/>
<path d="M947 716 l-36 -22 52 -31 c29 -17 75 -43 102 -58 28 -16 124 -70 213
-121 90 -52 168 -94 172 -94 5 0 10 -3 12 -7 2 -5 26 -20 54 -35 44 -24 53
-26 75 -14 35 19 493 298 502 306 5 4 -7 17 -27 28 l-35 21 -213 -131 c-117
-71 -222 -134 -234 -140 -17 -8 -60 13 -260 127 -131 76 -262 150 -290 165
l-50 28 -37 -22z"/>
<path d="M837 647 l-37 -23 366 -209 c201 -116 375 -214 385 -219 14 -7 88 34
338 185 176 107 321 197 321 200 0 3 -15 14 -34 24 l-33 18 -254 -154 c-140
-84 -269 -163 -287 -175 l-32 -22 -43 24 c-23 14 -49 29 -57 34 -33 19 -137
79 -175 100 -22 13 -85 48 -140 78 -55 31 -102 58 -105 61 -3 4 -19 13 -35 21
-17 9 -55 30 -85 48 l-56 31 -37 -22z"/>
<path d="M726 581 l-28 -19 68 -40 c368 -212 779 -445 793 -449 11 -3 79 33
172 90 85 52 217 133 294 180 77 47 173 105 213 128 39 23 72 46 72 50 0 5
-12 15 -27 22 -24 13 -30 12 -57 -3 -41 -23 -537 -324 -604 -367 l-53 -33 -67
38 c-37 22 -87 51 -112 64 -25 14 -171 98 -326 186 -154 89 -287 164 -295 167
-8 3 -27 -4 -43 -14z"/>
</g>
</svg>
